<?xml version="1.0" encoding="UTF-8" standalone="no"?>
<!-- Created with Inkscape (http://www.inkscape.org/) -->

<svg
   width="512"
   height="512"
   viewBox="0 0 512 512"
   version="1.1"
   id="svg5"
   inkscape:version="1.1 (c68e22c387, 2021-05-23)"
   sodipodi:docname="Immersion.svg"
   xmlns:inkscape="http://www.inkscape.org/namespaces/inkscape"
   xmlns:sodipodi="http://sodipodi.sourceforge.net/DTD/sodipodi-0.dtd"
   xmlns="http://www.w3.org/2000/svg"
   xmlns:svg="http://www.w3.org/2000/svg">
  <sodipodi:namedview
     id="namedview7"
     pagecolor="#505050"
     bordercolor="#ffffff"
     borderopacity="1"
     inkscape:pageshadow="0"
     inkscape:pageopacity="0"
     inkscape:pagecheckerboard="1"
     inkscape:document-units="px"
     showgrid="false"
     inkscape:zoom="0.80371094"
     inkscape:cx="281.81774"
     inkscape:cy="283.06197"
     inkscape:window-width="1920"
     inkscape:window-height="1137"
     inkscape:window-x="-8"
     inkscape:window-y="-8"
     inkscape:window-maximized="1"
     inkscape:current-layer="layer2" />
  <defs
     id="defs2" />
  <g
     inkscape:label="Background"
     inkscape:groupmode="layer"
     id="layer1">
    <rect
       style="font-variation-settings:'wght' 700;fill:#cc444b;fill-opacity:1;stroke-width:0.5"
       id="rect846"
       width="512"
       height="512"
       x="0"
       y="0"
       rx="100"
       ry="100" />
  </g>
  <g
     inkscape:groupmode="layer"
     id="layer2"
     inkscape:label="Txt">
    <path
       id="path825"
       style="font-weight:bold;font-size:330.342px;line-height:1;font-family:Montserrat;-inkscape-font-specification:'Montserrat Bold';text-align:center;text-anchor:middle;fill:#f3dcda;stroke-width:0.943831;fill-opacity:1"
       d="M 53.5 140.38086 L 53.5 371.61914 L 107.01562 371.61914 L 107.01562 140.38086 L 53.5 140.38086 z M 263.26758 191.25391 C 248.73253 191.25391 235.73897 194.44542 224.28711 200.83203 C 217.82262 204.38116 212.22597 208.94983 207.43945 214.46875 L 207.43945 193.89648 L 158.21875 193.89648 L 158.21875 371.61914 L 209.75195 371.61914 L 209.75195 282.42773 C 209.75195 271.85679 211.40361 263.15714 214.70703 256.33008 C 218.01045 249.50301 222.63588 244.43819 228.58203 241.13477 C 234.52818 237.61111 241.24467 235.84961 248.73242 235.84961 C 259.5236 235.84961 267.78189 239.26277 273.50781 246.08984 C 279.45397 252.91691 282.42773 263.48791 282.42773 277.80273 L 282.42773 371.61914 L 333.96094 371.61914 L 333.96094 282.42773 C 333.96094 271.85679 335.6126 263.15714 338.91602 256.33008 C 342.21944 249.50301 346.84486 244.43819 352.79102 241.13477 C 358.73717 237.61111 365.45365 235.84961 372.94141 235.84961 C 383.73258 235.84961 392.10072 239.26277 398.04688 246.08984 C 403.99303 252.91691 406.9668 263.48791 406.9668 277.80273 L 406.9668 371.61914 L 458.5 371.61914 L 458.5 269.875 C 458.5 251.81631 455.30654 237.06124 448.91992 225.60938 C 442.75354 213.93729 434.16375 205.3475 423.15234 199.8418 C 412.36118 194.11587 399.91881 191.25391 385.82422 191.25391 C 368.86666 191.25391 353.78204 195.32812 340.56836 203.47656 C 333.14613 208.13118 326.9137 213.75239 321.79102 220.27539 C 317.6265 213.58692 312.34317 208.07638 305.88086 203.80664 C 293.76832 195.43797 279.56445 191.25391 263.26758 191.25391 z " />
  </g>
</svg>
