<?xml version="1.0" encoding="UTF-8" standalone="no"?>
<!-- Created with Inkscape (http://www.inkscape.org/) -->

<svg
   width="512"
   height="512"
   viewBox="0 0 512 512"
   version="1.1"
   id="svg5"
   inkscape:version="1.1.2 (0a00cf5339, 2022-02-04, custom)"
   sodipodi:docname="Taeron.svg"
   xmlns:inkscape="http://www.inkscape.org/namespaces/inkscape"
   xmlns:sodipodi="http://sodipodi.sourceforge.net/DTD/sodipodi-0.dtd"
   xmlns="http://www.w3.org/2000/svg"
   xmlns:svg="http://www.w3.org/2000/svg">
  <sodipodi:namedview
     id="namedview7"
     pagecolor="#505050"
     bordercolor="#ffffff"
     borderopacity="1"
     inkscape:pageshadow="0"
     inkscape:pageopacity="0"
     inkscape:pagecheckerboard="1"
     inkscape:document-units="px"
     showgrid="false"
     inkscape:zoom="0.80371094"
     inkscape:cx="281.19562"
     inkscape:cy="283.68408"
     inkscape:window-width="1920"
     inkscape:window-height="1009"
     inkscape:window-x="-8"
     inkscape:window-y="-8"
     inkscape:window-maximized="1"
     inkscape:current-layer="layer2" />
  <defs
     id="defs2" />
  <g
     inkscape:label="Background"
     inkscape:groupmode="layer"
     id="layer1">
    <rect
       style="font-variation-settings:'wght' 700;fill:#412234;fill-opacity:1;stroke-width:0.5"
       id="rect846"
       width="512"
       height="512"
       x="0"
       y="0"
       rx="100"
       ry="100" />
  </g>
  <g
     inkscape:groupmode="layer"
     id="layer2"
     inkscape:label="Txt">
    <path
       id="path825"
       style="font-weight:bold;font-size:330.342px;line-height:1;font-family:Montserrat;-inkscape-font-specification:'Montserrat Bold';text-align:center;text-anchor:middle;fill:#ead7d7;stroke-width:0.943831"
       d="M 68.5 139.05859 L 68.5 182.66406 L 142.49609 182.66406 L 142.49609 370.29883 L 196.01172 370.29883 L 196.01172 182.66406 L 270.00781 182.66406 L 270.00781 139.05859 L 68.5 139.05859 z M 357.94141 189.93164 C 343.84681 189.93164 329.9725 191.803 316.31836 195.54688 C 302.66423 199.29075 290.99277 204.57723 281.30273 211.4043 L 299.80078 247.41016 C 306.18739 242.34492 313.89643 238.3825 322.92578 235.51953 C 332.17536 232.43634 341.53411 230.89453 351.00391 230.89453 C 364.87827 230.89453 375.11972 233.97814 381.72656 240.14453 C 388.55363 246.31091 391.9668 254.89876 391.9668 265.91016 L 351.00391 265.91016 C 332.94521 265.91016 318.29999 268.22286 307.06836 272.84766 C 295.83673 277.25222 287.57844 283.4175 282.29297 291.3457 C 277.22772 299.27391 274.69531 308.52476 274.69531 319.0957 C 274.69531 329.22619 277.33757 338.36523 282.62305 346.51367 C 287.90852 354.66211 295.50771 361.15889 305.41797 366.00391 C 315.32823 370.6287 327.21939 372.94141 341.09375 372.94141 C 356.72994 372.94141 369.5038 369.96764 379.41406 364.02148 C 386.12454 359.9952 391.38633 354.67563 395.26953 348.125 L 395.26953 370.29883 L 443.5 370.29883 L 443.5 268.88281 C 443.5 241.79477 436.01262 221.86502 421.03711 209.0918 C 406.0616 196.31857 385.02945 189.93164 357.94141 189.93164 z M 356.62109 295.9707 L 391.9668 295.9707 L 391.9668 314.14062 C 388.88361 322.06883 383.92864 328.12426 377.10156 332.30859 C 370.2745 336.27269 362.56546 338.25586 353.97656 338.25586 C 344.94722 338.25586 337.79133 336.38255 332.50586 332.63867 C 327.44062 328.67457 324.9082 323.39004 324.9082 316.7832 C 324.9082 310.83705 327.10911 305.88208 331.51367 301.91797 C 336.13846 297.95387 344.50855 295.9707 356.62109 295.9707 z " />
  </g>
</svg>
